{
    "asset" : {
        "generator" : "Khronos glTF Blender I/O v1.0.5",
        "version" : "2.0"
    },
    "scene" : 0,
    "scenes" : [
        {
            "name" : "Scene",
            "nodes" : [
                0
            ]
        }
    ],
    "nodes" : [
        {
            "mesh" : 0,
            "name" : "character"
        }
    ],
    "materials" : [
        {
            "doubleSided" : true,
            "name" : "Skin",
            "pbrMetallicRoughness" : {}
        },
        {
            "doubleSided" : true,
            "name" : "pants",
            "pbrMetallicRoughness" : {
                "baseColorFactor" : [
                    1,
                    1,
                    1,
                    0
                ],
                "metallicFactor" : 0,
                "roughnessFactor" : 0.5
            }
        },
        {
            "doubleSided" : true,
            "name" : "shirt",
            "pbrMetallicRoughness" : {
                "baseColorFactor" : [
                    1,
                    1,
                    1,
                    1
                ],
                "metallicFactor" : 0,
                "roughnessFactor" : 0.5
            }
        },
        {
            "doubleSided" : true,
            "name" : "shoes",
            "pbrMetallicRoughness" : {
                "baseColorFactor" : [
                    0.800000011920929,
                    0.800000011920929,
                    0.800000011920929,
                    1
                ],
                "metallicFactor" : 0,
                "roughnessFactor" : 0.5
            }
        }
    ],
    "meshes" : [
        {
            "name" : "Cube",
            "primitives" : [
                {
                    "attributes" : {
                        "POSITION" : 0,
                        "NORMAL" : 1
                    },
                    "indices" : 2,
                    "material" : 0
                },
                {
                    "attributes" : {
                        "POSITION" : 3,
                        "NORMAL" : 4
                    },
                    "indices" : 5,
                    "material" : 1
                },
                {
                    "attributes" : {
                        "POSITION" : 6,
                        "NORMAL" : 7
                    },
                    "indices" : 8,
                    "material" : 2
                },
                {
                    "attributes" : {
                        "POSITION" : 9,
                        "NORMAL" : 10
                    },
                    "indices" : 11,
                    "material" : 3
                }
            ]
        }
    ],
    "accessors" : [
        {
            "bufferView" : 0,
            "componentType" : 5126,
            "count" : 696,
            "max" : [
                3.6064295768737793,
                8.18204402923584,
                1.3078640699386597
            ],
            "min" : [
                -3.6064295768737793,
                -8.166090965270996,
                -1.148151159286499
            ],
            "type" : "VEC3"
        },
        {
            "bufferView" : 1,
            "componentType" : 5126,
            "count" : 696,
            "type" : "VEC3"
        },
        {
            "bufferView" : 2,
            "componentType" : 5123,
            "count" : 4164,
            "type" : "SCALAR"
        },
        {
            "bufferView" : 3,
            "componentType" : 5126,
            "count" : 195,
            "max" : [
                1.7918723821640015,
                1.0792186260223389,
                0.8970383405685425
            ],
            "min" : [
                -1.7918723821640015,
                -7.455955505371094,
                -1.0117981433868408
            ],
            "type" : "VEC3"
        },
        {
            "bufferView" : 4,
            "componentType" : 5126,
            "count" : 195,
            "type" : "VEC3"
        },
        {
            "bufferView" : 5,
            "componentType" : 5123,
            "count" : 1080,
            "type" : "SCALAR"
        },
        {
            "bufferView" : 6,
            "componentType" : 5126,
            "count" : 162,
            "max" : [
                2.5768165588378906,
                5.443215847015381,
                1.1049001216888428
            ],
            "min" : [
                -2.5768165588378906,
                0.4042642414569855,
                -1.148151159286499
            ],
            "type" : "VEC3"
        },
        {
            "bufferView" : 7,
            "componentType" : 5126,
            "count" : 162,
            "type" : "VEC3"
        },
        {
            "bufferView" : 8,
            "componentType" : 5123,
            "count" : 864,
            "type" : "SCALAR"
        },
        {
            "bufferView" : 9,
            "componentType" : 5126,
            "count" : 82,
            "max" : [
                1.8581445217132568,
                -7.585151195526123,
                1.0515776872634888
            ],
            "min" : [
                -1.8581445217132568,
                -8.170340538024902,
                -0.7158742547035217
            ],
            "type" : "VEC3"
        },
        {
            "bufferView" : 10,
            "componentType" : 5126,
            "count" : 82,
            "type" : "VEC3"
        },
        {
            "bufferView" : 11,
            "componentType" : 5123,
            "count" : 432,
            "type" : "SCALAR"
        }
    ],
    "bufferViews" : [
        {
            "buffer" : 0,
            "byteLength" : 8352,
            "byteOffset" : 0
        },
        {
            "buffer" : 0,
            "byteLength" : 8352,
            "byteOffset" : 8352
        },
        {
            "buffer" : 0,
            "byteLength" : 8328,
            "byteOffset" : 16704
        },
        {
            "buffer" : 0,
            "byteLength" : 2340,
            "byteOffset" : 25032
        },
        {
            "buffer" : 0,
            "byteLength" : 2340,
            "byteOffset" : 27372
        },
        {
            "buffer" : 0,
            "byteLength" : 2160,
            "byteOffset" : 29712
        },
        {
            "buffer" : 0,
            "byteLength" : 1944,
            "byteOffset" : 31872
        },
        {
            "buffer" : 0,
            "byteLength" : 1944,
            "byteOffset" : 33816
        },
        {
            "buffer" : 0,
            "byteLength" : 1728,
            "byteOffset" : 35760
        },
        {
            "buffer" : 0,
            "byteLength" : 984,
            "byteOffset" : 37488
        },
        {
            "buffer" : 0,
            "byteLength" : 984,
            "byteOffset" : 38472
        },
        {
            "buffer" : 0,
            "byteLength" : 864,
            "byteOffset" : 39456
        }
    ],
    "buffers" : [
        {
            "byteLength" : 40320,
            "uri" : "character.bin"
        }
    ]
}
