{
    "asset" : {
        "generator" : "Khronos glTF Blender I/O v1.0.5",
        "version" : "2.0"
    },
    "scene" : 0,
    "scenes" : [
        {
            "name" : "Scene",
            "nodes" : [
                0
            ]
        }
    ],
    "nodes" : [
        {
            "mesh" : 0,
            "name" : "Cube"
        }
    ],
    "materials" : [
        {
            "doubleSided" : true,
            "name" : "Material",
            "pbrMetallicRoughness" : {}
        }
    ],
    "meshes" : [
        {
            "name" : "Cube",
            "primitives" : [
                {
                    "attributes" : {
                        "POSITION" : 0,
                        "NORMAL" : 1
                    },
                    "indices" : 2,
                    "material" : 0
                }
            ]
        }
    ],
    "accessors" : [
        {
            "bufferView" : 0,
            "componentType" : 5126,
            "count" : 696,
            "max" : [
                3.6064295768737793,
                8.18204402923584,
                1.3078640699386597
            ],
            "min" : [
                -3.6064295768737793,
                -8.166090965270996,
                -1.148151159286499
            ],
            "type" : "VEC3"
        },
        {
            "bufferView" : 1,
            "componentType" : 5126,
            "count" : 696,
            "type" : "VEC3"
        },
        {
            "bufferView" : 2,
            "componentType" : 5123,
            "count" : 4164,
            "type" : "SCALAR"
        }
    ],
    "bufferViews" : [
        {
            "buffer" : 0,
            "byteLength" : 8352,
            "byteOffset" : 0
        },
        {
            "buffer" : 0,
            "byteLength" : 8352,
            "byteOffset" : 8352
        },
        {
            "buffer" : 0,
            "byteLength" : 8328,
            "byteOffset" : 16704
        }
    ],
    "buffers" : [
        {
            "byteLength" : 25032,
            "uri" : "character.bin"
        }
    ]
}
