<svg width="99" height="128" viewBox="0 0 99 128" fill="none" xmlns="http://www.w3.org/2000/svg">
<path d="M48.6837 30.6296C59.0062 27.6667 73.299 126.185 73.299 126.185H97.9137L92.6304 22.4815M48.6837 30.6296C38.3613 33.5926 24.4657 126.185 24.4657 126.185H1.43884L6.51783 22.4815M48.6837 30.6296V1M92.6304 22.4815L90.7981 7.66667M92.6304 22.4815C81.1956 22.1529 75.9195 19.3166 69.3285 7.66667M6.51783 22.4815L8.49115 7.66667M6.51783 22.4815C19.6395 21.6863 24.6964 18.4302 29.6269 7.66667M48.6837 1H78.0627M48.6837 1H18.1135M8.49115 7.66667L9.37915 1H18.1135M8.49115 7.66667H18.1135M18.1135 1V7.66667M18.1135 7.66667H29.6269M90.7981 7.66667L89.9734 1H78.0627M90.7981 7.66667H78.0627M78.0627 1V7.66667M78.0627 7.66667H69.3285M69.3285 7.66667H29.6269M53.4479 2.85185C54.4407 2.85185 55.433 3.40719 55.433 4.33333C55.433 5.25947 54.4407 5.81481 53.4479 5.81481C52.4552 5.81481 51.4628 5.25947 51.4628 4.33333C51.4628 3.40719 52.4552 2.85185 53.4479 2.85185Z" stroke="black" stroke-width="2"/>
</svg>
