<svg width="99" height="128" viewBox="0 0 99 128" fill="none" xmlns="http://www.w3.org/2000/svg">
<path d="M73.299 126.185C73.299 126.185 59.0062 27.6667 48.6837 30.6296C38.3613 33.5926 24.4657 126.185 24.4657 126.185H1.43884L6.51783 22.4815L8.49115 7.66667L9.37915 1H18.1135H48.6837H78.0627H89.9734L90.7981 7.66667L92.6304 22.4815L97.9137 126.185H73.299Z" fill="#0462CF"/>
<path d="M48.6837 30.6296C59.0062 27.6667 73.299 126.185 73.299 126.185H97.9137L92.6304 22.4815M48.6837 30.6296C38.3613 33.5926 24.4657 126.185 24.4657 126.185H1.43884L6.51783 22.4815M48.6837 30.6296V1M92.6304 22.4815L90.7981 7.66667M92.6304 22.4815C81.1956 22.1529 75.9195 19.3166 69.3285 7.66667M6.51783 22.4815L8.49115 7.66667M6.51783 22.4815C19.6395 21.6863 24.6964 18.4302 29.6269 7.66667M48.6837 1H78.0627M48.6837 1H18.1135M8.49115 7.66667L9.37915 1H18.1135M8.49115 7.66667H18.1135M18.1135 1V7.66667M18.1135 7.66667H29.6269M90.7981 7.66667L89.9734 1H78.0627M90.7981 7.66667H78.0627M78.0627 1V7.66667M78.0627 7.66667H69.3285M69.3285 7.66667H29.6269" stroke="black" stroke-width="2"/>
<ellipse cx="53" cy="4.5" rx="2" ry="1.5" fill="black"/>
</svg>
