<svg width="139" height="190" viewBox="0 0 139 190" fill="none" xmlns="http://www.w3.org/2000/svg">
<path d="M74.7778 3.77778C76.167 3.77778 77.5556 4.61079 77.5556 6C77.5556 7.38921 76.167 8.22222 74.7778 8.22222C73.3886 8.22222 72 7.38921 72 6C72 4.61079 73.3886 3.77778 74.7778 3.77778Z" fill="black"/>
<path d="M68.1111 45.4444C82.5556 41 102.556 188.778 102.556 188.778H137L129.607 33.2222M68.1111 45.4444C53.6667 49.8889 34.2222 188.778 34.2222 188.778H2L9.10717 33.2222M68.1111 45.4444V1M11.8685 11L13.1111 1H25.3333M11.8685 11H25.3333M11.8685 11L9.10717 33.2222M127.043 11L125.889 1H109.222M127.043 11H109.222M127.043 11L129.607 33.2222M68.1111 1H109.222M68.1111 1H25.3333M109.222 11V1M109.222 11H97M25.3333 11V1M25.3333 11H41.4444M97 11C106.223 28.4749 113.606 32.7293 129.607 33.2222M97 11H41.4444M9.10717 33.2222C27.4687 32.0294 34.545 27.1453 41.4444 11M74.7778 3.77778C76.167 3.77778 77.5556 4.61079 77.5556 6C77.5556 7.38921 76.167 8.22222 74.7778 8.22222C73.3886 8.22222 72 7.38921 72 6C72 4.61079 73.3886 3.77778 74.7778 3.77778Z" stroke="black" stroke-width="2"/>
</svg>
