<svg width="77" height="35" viewBox="0 0 77 35" fill="none" xmlns="http://www.w3.org/2000/svg">
<path d="M22.5335 6.31754C22.5335 7.89974 22.5335 8.78682 22.5335 10.369V6.31754ZM12.1517 10.369C6.58089 5.51476 9.11306 1 6.58089 1C4.04873 0.999999 2.78265 6.31754 2.78265 6.31754L1.01013 13.1544L10 15L12.1517 10.369Z" fill="#B91010"/>
<path d="M1.01013 13.1544V24.8023L65.3271 25.562L63.8078 19.6975C63.8078 19.6975 38.7394 17.9655 22.5335 10.369C19.7482 15.6866 16.206 10.369 12.1517 10.369L10 15L1.01013 13.1544Z" fill="#B91010"/>
<path d="M63.8078 19.6975L61.0224 15.6866L32.6622 3.50215C32.6622 3.50215 26.8382 7.58363 22.5335 6.31754V10.369C38.7394 17.9655 63.8078 19.6975 63.8078 19.6975Z" fill="#B91010"/>
<path d="M26.8382 1C24.0528 1 24.2146 4.24091 22.5335 6.31754C26.8382 7.58363 32.6622 3.50215 32.6622 3.50215C32.6622 3.50215 29.6236 0.999998 26.8382 1Z" fill="#B91010"/>
<path d="M1.01013 24.8023C1.01013 24.8023 0.756902 31.386 2.78265 32.9053C4.80839 34.4246 65.3271 32.9053 65.3271 32.9053H69.3786C69.3786 32.9053 74.0911 32.7623 75.4558 30.6263C76.6803 28.7097 75.4558 24.8023 75.4558 24.8023L65.3271 25.562L1.01013 24.8023Z" fill="#B91010"/>
<path d="M75.4558 24.8023C75.4558 24.8023 75.9189 21.8254 73.43 19.6975C71.4043 17.9655 61.0224 15.6866 61.0224 15.6866L63.8078 19.6975L65.3271 25.562L75.4558 24.8023Z" fill="#B91010"/>
<path d="M1.01013 24.8023C1.01013 24.8023 0.756902 31.386 2.78265 32.9053C4.80839 34.4246 65.3271 32.9053 65.3271 32.9053H69.3786C69.3786 32.9053 74.0911 32.7623 75.4558 30.6263C76.6803 28.7097 75.4558 24.8023 75.4558 24.8023M1.01013 24.8023V13.1544M1.01013 24.8023L65.3271 25.562M1.01013 13.1544L2.78265 6.31754C2.78265 6.31754 4.04873 0.999999 6.58089 1C9.11306 1 6.58089 5.51476 12.1517 10.369M1.01013 13.1544L10 15L12.1517 10.369M65.3271 25.562L63.8078 19.6975M65.3271 25.562L75.4558 24.8023M75.4558 24.8023C75.4558 24.8023 75.9189 21.8254 73.43 19.6975C71.4043 17.9655 61.0224 15.6866 61.0224 15.6866M61.0224 15.6866L63.8078 19.6975M61.0224 15.6866L32.6622 3.50215M63.8078 19.6975C63.8078 19.6975 38.7394 17.9655 22.5335 10.369M32.6622 3.50215C32.6622 3.50215 29.6236 0.999998 26.8382 1C24.0528 1 24.2146 4.24091 22.5335 6.31754M32.6622 3.50215C32.6622 3.50215 26.8382 7.58363 22.5335 6.31754M22.5335 6.31754C22.5335 7.89974 22.5335 8.78682 22.5335 10.369M22.5335 6.31754V10.369M22.5335 10.369C19.7482 15.6866 16.206 10.369 12.1517 10.369" stroke="black" stroke-width="2"/>
</svg>
