<svg width="77" height="35" viewBox="0 0 77 35" fill="none" xmlns="http://www.w3.org/2000/svg">
<path d="M1.01013 24.8023C1.01013 24.8023 0.756903 31.386 2.78265 32.9053C4.80839 34.4246 65.3271 32.9053 65.3271 32.9053M1.01013 24.8023V13.1544M1.01013 24.8023L15.1903 26.8281H53.4259L65.3271 25.562M75.4558 24.8023C75.4558 24.8023 76.6803 28.7097 75.4558 30.6263C74.0911 32.7623 69.3786 32.9053 69.3786 32.9053H65.3271M75.4558 24.8023C75.4558 24.8023 75.9189 21.8254 73.43 19.6975C71.4043 17.9655 61.0224 15.6866 61.0224 15.6866M75.4558 24.8023C75.4558 24.8023 75.4558 23.357 71.4043 24.8023M61.0224 15.6866L63.8078 19.6975M61.0224 15.6866L32.6622 3.50215M22.5335 6.31754C24.2146 4.24091 24.0528 1 26.8382 1C29.6236 0.999998 32.6622 3.50215 32.6622 3.50215M22.5335 6.31754C22.5335 7.89974 22.5335 8.78682 22.5335 10.369M22.5335 6.31754C26.8382 7.58363 32.6622 3.50215 32.6622 3.50215M22.5335 10.369C19.7482 15.6866 16.206 10.369 12.1517 10.369M22.5335 10.369C38.7394 17.9655 63.8078 19.6975 63.8078 19.6975M12.1517 10.369C6.58089 5.51476 9.11306 1 6.58089 1C4.04873 0.999999 2.78265 6.31754 2.78265 6.31754L1.01013 13.1544M12.1517 10.369C13.4177 14.4205 11.1388 14.9269 8.60662 15.6866C6.07446 16.4462 4.80838 10.369 1.01013 13.1544M65.3271 25.562L63.8078 19.6975M65.3271 25.562C65.3271 25.562 67.3528 26.2477 71.4043 24.8023M71.4043 24.8023C69.031 27.9667 65.3271 32.9053 65.3271 32.9053" stroke="black" stroke-width="2"/>
</svg>
